
   <svg xmlns="http://www.w3.org/2000/svg" viewBox="0 0 32 32" class="button--give-a-try--item-arrow" style="height: 13px;">
    <path class="button--give-a-try--item-arrow-spike" fill="#000" d="M31.2,14L18.7,1.6c-1.1-1.1-3-1.1-4.1,0c-1.1,1.1-1.1,2.9,0,4.1L25,16L14.6,26.3c-1.1,1.1-1.1,2.9,0,4.1 c1.1,1.1,3,1.1,4.1,0L31.2,18c0.6-0.6,0.9-1.3,0.8-2C32,15.3,31.7,14.5,31.2,14z"></path>
    <path class="button--give-a-try--item-arrow-dash" fill="#000" d="M2.3,13h22.9c1.3,0,2.3,1,2.3,2.3v1.5c0,1.3-1,2.3-2.3,2.3H2.3c-1.3,0-2.3-1-2.3-2.3v-1.5C0,14.1,1,13,2.3,13z"></path>
</svg>


