  <svg xmlns="http://www.w3.org/2000/svg" viewBox="0 0 994 945.3" class="m-organise--shape" data-state-name="tag-manager" style="height: 902px;">
            <defs>
                <clipPath id="organise-shape-mask">
                    <path d="M754.3 667.4L559.5 779.9c-43.2 25-96.5 25-139.7 0L225.1 667.4c-43.2-25-69.9-71.1-69.9-121v-225c0-49.9 26.6-96.1 69.9-121L419.8 87.9c43.2-25 96.5-25 139.7 0l194.7 112.5c43.2 25 69.9 71.1 69.9 121v224.9c0 50-26.6 96.1-69.8 121.1z"></path>
                </clipPath>

                <linearGradient id="organise-shape-background-gradient" gradientUnits="userSpaceOnUse" x1="0%" y1="0%" x2="100%" y2="0%" gradientTransform="rotate(90)">
                    <stop offset="0%" stop-color="#769bf7"></stop>
                    <stop offset="100%" stop-color="#b49edc"></stop>
                </linearGradient>

                <filter id="organise-shape-select-tag-shadow" x="-40%" y="-40%" height="180%" width="180%" filterUnits="userSpaceOnUse">
                    <feGaussianBlur in="SourceAlpha" stdDeviation="29"></feGaussianBlur>
                    <feOffset dx="0" dy="12" result="offsetblur"></feOffset>
                    <feFlood flood-color="#040a77"></feFlood>
                    <feComposite in2="offsetblur" operator="in"></feComposite>
                    <feComponentTransfer>
                        <feFuncA type="linear" slope="0.25"></feFuncA>
                    </feComponentTransfer>
                    <feMerge>
                        <feMergeNode></feMergeNode>
                        <feMergeNode in="SourceGraphic"></feMergeNode>
                    </feMerge>
                </filter>
            </defs>

            <g>
                <g clip-path="url(#organise-shape-mask)">
                    <g>
                        <path fill="url(#organise-shape-background-gradient)" d="M754.3 667.4L559.5 779.9c-43.2 25-96.5 25-139.7 0L225.1 667.4c-43.2-25-69.9-71.1-69.9-121v-225c0-49.9 26.6-96.1 69.9-121L419.8 87.9c43.2-25 96.5-25 139.7 0l194.7 112.5c43.2 25 69.9 71.1 69.9 121v224.9c0 50-26.6 96.1-69.8 121.1z"></path>
                    </g>
                    <g class="m-organise--shape-element">
                        <path fill="#DEE3FF" d="M225.8,294.2H7.2c-4,0-7.2-3.2-7.2-7.2V158.5c0-4,3.2-7.2,7.2-7.2h218.6c4,0,7.2,3.2,7.2,7.2v128.6 C233,291,229.8,294.2,225.8,294.2z"></path>
                    </g>
                    <g class="m-organise--shape-element">
                        <path fill="#DEE3FF" d="M986.8,278.2H768.2c-4,0-7.2-3.2-7.2-7.2V169.5c0-4,3.2-7.2,7.2-7.2h218.6c4,0,7.2,3.2,7.2,7.2v101.6 C994,275,990.8,278.2,986.8,278.2z"></path>
                    </g>
                    <g class="m-organise--shape-element m-organise--shape-element-empty">
                        <path fill="#DEE3FF" transform="translate(0, -20)" d="M733.2,952.6H514.6c-4,0-7.2-3.2-7.2-7.2V786.5c0-4,3.2-7.2,7.2-7.2h218.6c4,0,7.2,3.2,7.2,7.2v158.8 C740.4,949.4,737.2,952.6,733.2,952.6z"></path>
                    </g>
                    <g class="m-organise--shape-element">
                        <path fill="#A4ABED" d="M486.6 70.7c0-4-3.2-7.2-7.2-7.2H260.7c-4 0-7.2 3.2-7.2 7.2v39h233v-39h.1z"></path>
                        <path fill="#DEE3FF" d="M253.6 109.2v64c0 4 3.2 7.2 7.2 7.2h218.6c4 0 7.2-3.2 7.2-7.2v-64h-233z"></path>
                        <path fill="#727CD6" d="M374.3 88.2h-77.7c-1 0-1.8-.8-1.8-1.8s.8-1.8 1.8-1.8h77.7c1 0 1.8.8 1.8 1.8s-.8 1.8-1.8 1.8zm-93.4 5.1h-10.1c-.9 0-1.7-.8-1.7-1.7V81.5c0-.9.8-1.7 1.7-1.7h10.1c.9 0 1.7.8 1.7 1.7v10.1c0 1-.8 1.7-1.7 1.7z"></path>
                        <g transform="translate(-2, 0)">
                            <path fill="#A4ABED" d="M350.9 124.6h37.9v38.8h-37.9z"></path>
                            <path fill="#727CD6" d="M389 124.6h37.9v38.8H389z"></path>
                            <path fill="#AEB7ED" d="M277.6 124.6c-1.4 0-2.5 1.1-2.5 2.5v33.8c0 1.4 1.1 2.5 2.5 2.5H313v-38.8h-35.4z"></path>
                            <path fill="#8592E0" d="M313.2 124.6h37.9v38.8h-37.9z"></path>
                            <path fill="#A4ABED" d="M462.2 124.6h-35.4v38.8h35.4c1.4 0 2.5-1.1 2.5-2.5v-33.8c0-1.4-1.1-2.5-2.5-2.5z"></path>
                        </g>
                    </g>
                    <g class="m-organise--shape-element">
                        <path fill="#A4ABED" d="M993.6 623.7c0-4-3.2-7.2-7.2-7.2H767.7c-4 0-7.2 3.2-7.2 7.2v39h233l.1-39z"></path>
                        <path fill="#DEE3FF" d="M760.6 662.2v64c0 4 3.2 7.2 7.2 7.2h218.6c4 0 7.2-3.2 7.2-7.2v-64h-233z"></path>
                        <path fill="#727CD6" d="M881.3 641.2h-77.7c-1 0-1.8-.8-1.8-1.8s.8-1.8 1.8-1.8h77.7c1 0 1.8.8 1.8 1.8s-.8 1.8-1.8 1.8zm-93.9 5.1h-9.1c-1.2 0-2.2-1-2.2-2.2V635c0-1.2 1-2.2 2.2-2.2h9.1c1.2 0 2.2 1 2.2 2.2v9.1c0 1.3-1 2.2-2.2 2.2z"></path>
                        <path fill="#A4ABED" d="M857.9 677.6h37.9v38.8h-37.9z"></path>
                        <path fill="#727CD6" d="M896 677.6h37.9v38.8H896z"></path>
                        <path fill="#AEB7ED" d="M784.6 677.6c-1.4 0-2.5 1.1-2.5 2.5v33.8c0 1.4 1.1 2.5 2.5 2.5H820v-38.8h-35.4z"></path>
                        <path fill="#8592E0" d="M820.2 677.6h37.9v38.8h-37.9z"></path>
                        <path fill="#A4ABED" d="M969.2 677.6h-35.4v38.8h35.4c1.4 0 2.5-1.1 2.5-2.5v-33.8c0-1.4-1.1-2.5-2.5-2.5z"></path>
                    </g>
                    <g class="m-organise--shape-element">
                        <path fill="#DEE3FF" d="M986.4 596.7H767.8c-4 0-7.2-3.2-7.2-7.2V305.4c0-4 3.2-7.2 7.2-7.2h218.6c4 0 7.2 3.2 7.2 7.2v284.1c0 4-3.2 7.2-7.2 7.2z"></path>
                        <path fill="#727CD6" d="M962.5 579.9H791.8c-3.5 0-6.3-2.8-6.3-6.3V437.9c0-3.5 2.8-6.3 6.3-6.3h170.7c3.5 0 6.3 2.8 6.3 6.3v135.6c0 3.5-2.8 6.4-6.3 6.4z"></path>
                        <path fill="#A4ABED" d="M963 482.5H791.3c-3.5 0-6.3-2.8-6.3-6.3v-46.4c0-3.5 2.8-6.3 6.3-6.3H963c3.5 0 6.3 2.8 6.3 6.3v46.4c0 3.4-2.8 6.3-6.3 6.3z"></path>
                        <path fill="#FFF" d="M945.5 565.4H808.8c-6 0-10.8-4.8-10.8-10.8s4.8-10.8 10.8-10.8h136.7c6 0 10.8 4.8 10.8 10.8s-4.9 10.8-10.8 10.8z"></path>
                        <path fill="#A4ABED" d="M912.1 556.8h-69.9c-.9 0-1.6-.7-1.6-1.6 0-.9.7-1.6 1.6-1.6h69.9c.9 0 1.6.7 1.6 1.6-.1.9-.8 1.6-1.6 1.6z"></path>
                        <path fill="#898EE5" d="M900.5 505.7h-91c-1.6 0-2.9-1.3-2.9-2.9s1.3-2.9 2.9-2.9h91c1.6 0 2.9 1.3 2.9 2.9 0 1.6-1.3 2.9-2.9 2.9z"></path>
                        <path fill="#A4ABED" d="M944.8 505.7h-29.3c-1.6 0-2.9-1.3-2.9-2.9s1.3-2.9 2.9-2.9h29.3c1.6 0 2.9 1.3 2.9 2.9 0 1.6-1.3 2.9-2.9 2.9z"></path>
                        <path fill="#898EE5" d="M923.1 523.6h-67.2c-1.6 0-2.9-1.3-2.9-2.9 0-1.6 1.3-2.9 2.9-2.9h67.2c1.6 0 2.9 1.3 2.9 2.9s-1.3 2.9-2.9 2.9z"></path>
                        <path fill="#A4ABED" d="M840.9 523.6h-31.4c-1.6 0-2.9-1.3-2.9-2.9 0-1.6 1.3-2.9 2.9-2.9h31.4c1.6 0 2.9 1.3 2.9 2.9 0 1.6-1.3 2.9-2.9 2.9z"></path>
                        <circle cx="877.1" cy="345.2" r="25.5" fill="#898EE5"></circle>
                        <circle cx="893.1" cy="325.4" r="6.7" fill="#AEB7ED"></circle>
                        <path fill="#FFF" d="M907.9 392.9h-61.5c-2.2 0-3.9-1.8-3.9-3.9s1.8-3.9 3.9-3.9h61.5c2.2 0 3.9 1.8 3.9 3.9s-1.8 3.9-3.9 3.9z"></path>
                        <path fill="#A4ABED" d="M893 403.5h-31.8c-1.4 0-2.5-1.1-2.5-2.5s1.1-2.5 2.5-2.5H893c1.4 0 2.5 1.1 2.5 2.5s-1.1 2.5-2.5 2.5z"></path>
                        <path fill="#D7DCF7" d="M837.9 462.8h-29.5c-2.2 0-3.9-1.8-3.9-3.9s1.8-3.9 3.9-3.9h29.5c2.2 0 3.9 1.8 3.9 3.9s-1.8 3.9-3.9 3.9z"></path>
                        <path fill="#727CD6" d="M833.2 447.6H813c-.8 0-1.4-.6-1.4-1.4s.6-1.4 1.4-1.4h20.1c.8 0 1.4.6 1.4 1.4s-.6 1.4-1.3 1.4z"></path>
                        <path fill="#D7DCF7" d="M891.9 462.8h-29.5c-2.2 0-3.9-1.8-3.9-3.9s1.8-3.9 3.9-3.9h29.5c2.2 0 3.9 1.8 3.9 3.9s-1.7 3.9-3.9 3.9z"></path>
                        <path fill="#727CD6" d="M887.2 447.6h-20.1c-.8 0-1.4-.6-1.4-1.4s.6-1.4 1.4-1.4h20.1c.8 0 1.4.6 1.4 1.4s-.6 1.4-1.4 1.4z"></path>
                        <path fill="#D7DCF7" d="M945.9 462.8h-29.5c-2.2 0-3.9-1.8-3.9-3.9s1.8-3.9 3.9-3.9h29.5c2.2 0 3.9 1.8 3.9 3.9s-1.7 3.9-3.9 3.9z"></path>
                        <path fill="#727CD6" d="M941.2 447.6h-20.1c-.8 0-1.4-.6-1.4-1.4s.6-1.4 1.4-1.4h20.1c.8 0 1.4.6 1.4 1.4s-.6 1.4-1.4 1.4z"></path>
                    </g>
                    <g class="m-organise--shape-element">
                        <path fill="#DEE3FF" d="M226.6 653.2H8c-4 0-7.2-3.2-7.2-7.2V322c0-4 3.2-7.2 7.2-7.2h218.6c4 0 7.2 3.2 7.2 7.2v324.1c0 3.9-3.2 7.1-7.2 7.1z"></path>
                        <path fill="#FFF" d="M210.4 538.9H24.2c-4 0-7.2-3.2-7.2-7.2V340.9c0-4 3.2-7.2 7.2-7.2h186.1c4 0 7.2 3.2 7.2 7.2v190.9c0 3.9-3.2 7.1-7.1 7.1z"></path>
                        <path fill="#898EE5" d="M164.7 387.9l-65 119.6c-.7 1.3-2.1 2.1-3.6 2.1-.6 0-1.6-.2-2.5-.9C80.5 498.1 71.4 483 68 466.4c-1.7-8.3-1.9-16.7-.7-25 1.2-8.6 4-16.9 8.2-24.6 6.4-11.8 15.9-21.6 27.5-28.3 11.2-6.5 24-10 37-10 7.6 0 15.2 1.2 22.4 3.5 1.5.5 2.2 1.7 2.5 2.3.3.8.6 2.1-.2 3.6zm3.7 151.3c-1.2 8.6-4 16.9-8.2 24.6-6.4 11.8-15.9 21.6-27.5 28.3-11.2 6.5-24 10-37 10-7.6 0-15.2-1.2-22.4-3.5-1.5-.5-2.2-1.7-2.5-2.3-.3-.7-.6-2 .2-3.5l65-119.6c.7-1.3 2.1-2.1 3.6-2.1.6 0 1.6.2 2.5.9 13.1 10.6 22.2 25.7 25.6 42.3 1.7 8.2 1.9 16.6.7 24.9z"></path>
                    </g>
                    <g class="m-organise--shape-element m-organise--shape-element-tchat">
                        <g>
                            <path fill="#A4ABED" d="M253.7 939v39.1c0 4 3.2 7.2 7.2 7.2h218.6c4 0 7.2-3.2 7.2-7.2V939h-233z"></path>
                            <path fill="#DEE3FF" class="m-organise--shape-element-multiple-stroke" d="M486.7 720.6c0-4-3.2-7.2-7.2-7.2H260.9c-4 0-7.2 3.2-7.2 7.2v218.8h233V720.6z"></path>
                            <path fill="#FFF" d="M470.8 975H269.1c-1.8 0-3.2-1.5-3.2-3.2v-19.6c0-1.8 1.5-3.2 3.2-3.2h201.7c1.8 0 3.2 1.5 3.2 3.2v19.6c0 1.7-1.5 3.2-3.2 3.2zm-155.2-64.5c0 2.8 2.3 5.2 5.2 5.2h132.6c2.8 0 5.2-2.3 5.2-5.2V877c0-2.8-2.3-5.2-5.2-5.2H310.5c-2 0-3 2.5-1.6 3.9l6.8 6.5-.1 28.3z"></path>
                            <circle cx="285.9" cy="877.5" r="12.4" fill="#A4ABED"></circle>
                            <path fill="#D7DCF7" d="M447 909.6h-21.1c-1.2 0-2.2-1-2.2-2.2s1-2.2 2.2-2.2H447c1.2 0 2.2 1 2.2 2.2s-1 2.2-2.2 2.2z"></path>
                            <path fill="#727CD6" d="M364.9 886.9h-36.4c-1.2 0-2.2-1-2.2-2.2s1-2.2 2.2-2.2h36.4c1.2 0 2.2 1 2.2 2.2s-1 2.2-2.2 2.2zm29.2 11.7h-65.6c-1.2 0-2.2-1-2.2-2.2s1-2.2 2.2-2.2h65.6c1.2 0 2.2 1 2.2 2.2 0 1.3-1 2.2-2.2 2.2zm54.1-11.7h-69.3c-1.2 0-2.2-1-2.2-2.2s1-2.2 2.2-2.2h69.3c1.2 0 2.2 1 2.2 2.2 0 1.2-1 2.2-2.2 2.2z"></path>
                            <path fill="#A4ABED" d="M344.9 964.8h-69.3c-1.2 0-2.2-1-2.2-2.2s1-2.2 2.2-2.2h69.3c1.2 0 2.2 1 2.2 2.2 0 1.3-1 2.2-2.2 2.2z"></path>
                            <path fill="#FFF" d="M315.6 787.9c0 2.8 2.3 5.2 5.2 5.2h132.6c2.8 0 5.2-2.3 5.2-5.2v-33.5c0-2.8-2.3-5.2-5.2-5.2H333.1v-.1h-22.6c-2 0-3 2.5-1.6 3.9l6.8 6.5-.1 28.4z"></path>
                            <circle cx="285.9" cy="754.8" r="12.4" fill="#A4ABED"></circle>
                            <path fill="#D7DCF7" d="M447 787h-21.1c-1.2 0-2.2-1-2.2-2.2s1-2.2 2.2-2.2H447c1.2 0 2.2 1 2.2 2.2s-1 2.2-2.2 2.2z"></path>
                            <path fill="#727CD6" d="M364.9 764.3h-36.4c-1.2 0-2.2-1-2.2-2.2s1-2.2 2.2-2.2h36.4c1.2 0 2.2 1 2.2 2.2s-1 2.2-2.2 2.2zm29.2 11.7h-65.6c-1.2 0-2.2-1-2.2-2.2s1-2.2 2.2-2.2h65.6c1.2 0 2.2 1 2.2 2.2 0 1.3-1 2.2-2.2 2.2zm54.1-11.7h-69.3c-1.2 0-2.2-1-2.2-2.2s1-2.2 2.2-2.2h69.3c1.2 0 2.2 1 2.2 2.2 0 1.2-1 2.2-2.2 2.2z"></path>
                            <path fill="#A4ABED" d="M424.4 843.5c0 2.8-2.3 5.2-5.2 5.2H286.6c-2.8 0-5.2-2.3-5.2-5.2v-22.2c0-2.8 2.3-5.2 5.2-5.2H407v-.1h22.6c2 0 3 2.5 1.6 3.9l-6.8 6.5v17.1z"></path>
                            <circle cx="454.2" cy="821.8" r="12.4" fill="#A4ABED"></circle>
                            <path fill="#D7DCF7" d="M392 842h21c1.2 0 2.2-1 2.2-2.2s-1-2.2-2.2-2.2h-21c-1.2 0-2.2 1-2.2 2.2s1 2.2 2.2 2.2z"></path>
                            <path fill="#FFF" d="M351.1 831.2h51.2c1.2 0 2.2-1 2.2-2.2s-1-2.2-2.2-2.2h-51.2c-1.2 0-2.2 1-2.2 2.2 0 1.3 1 2.2 2.2 2.2zm-59.2 0h47.2c1.2 0 2.2-1 2.2-2.2s-1-2.2-2.2-2.2h-47.2c-1.2 0-2.2 1-2.2 2.2 0 1.3 1 2.2 2.2 2.2z"></path>
                            <path fill="#727CD6" d="M470.8 975h-62.7v-26.1h62.7c1.8 0 3.2 1.5 3.2 3.2v19.7c0 1.7-1.5 3.2-3.2 3.2z"></path>
                            <path fill="#FFF" d="M453.8 963.6h-25.5c-1.2 0-2.2-1-2.2-2.2s1-2.2 2.2-2.2h25.5c1.2 0 2.2 1 2.2 2.2s-1 2.2-2.2 2.2z"></path>
                        </g>
                        <g class="m-organise--shape-stack">
                            <path fill="#DEE3FF" d="M477.5 705.8c0-3.2-2.9-5.7-6.6-5.7H269.4c-3.7 0-6.6 2.5-6.6 5.7v7.8h214.8l-.1-7.8z" opacity="0.8"></path>
                            <path fill="#DEE3FF" d="M471.7 692.8c0-3-2.8-5.4-6.3-5.4H275.6c-3.5 0-6.3 2.4-6.3 5.4v7.3h202.4v-7.3z" opacity="0.6"></path>
                            <path fill="#DEE3FF" d="M465.6 680.5c0-2.8-2.6-5.1-5.9-5.1H281.3c-3.3 0-5.9 2.2-5.9 5.1v6.9h190.1v-6.9h.1z" opacity="0.4"></path>
                            <path fill="#DEE3FF" d="M459.4 669.1c0-2.6-2.4-4.7-5.5-4.7H287.1c-3.1 0-5.5 2.1-5.5 4.7v6.4h177.8v-6.4z" opacity="0.2"></path>
                            <path fill="#DEE3FF" d="M453.8 658.3c0-2.5-2.3-4.4-5.2-4.4H292.3c-2.9 0-5.2 2-5.2 4.4v6.1h166.7v-6.1z" opacity="0.05"></path>
                        </g>
                    </g>
                    <g class="m-organise--shape-element m-organise--shape-element-player">
                        <g>
                            <path fill="#DEE3FF" class="m-organise--shape-element-multiple-stroke" d="M479.8 633.7H261.2c-4 0-7.2-3.2-7.2-7.2v-359c0-4 3.2-7.2 7.2-7.2h218.6c4 0 7.2 3.2 7.2 7.2v359.1c0 3.9-3.2 7.1-7.2 7.1z"></path>
                            <path fill="#FFF" d="M467.3 617.5H273.7c-4 0-7.2-3.2-7.2-7.2V380.6c0-4 3.2-7.2 7.2-7.2h193.7c4 0 7.2 3.2 7.2 7.2v229.7c-.1 4-3.3 7.2-7.3 7.2z"></path>
                            <path fill="#A4ABED" d="M455.2 531.9H285.8c-.8 0-1.4.6-1.4 1.4 0 .8.6 1.4 1.4 1.4h169.5c.8 0 1.4-.6 1.4-1.4 0-.8-.7-1.4-1.5-1.4zm-160.6-9h-8.8c-.8 0-1.4.6-1.4 1.4 0 .8.6 1.4 1.4 1.4h8.8c.8 0 1.4-.6 1.4-1.4 0-.7-.6-1.4-1.4-1.4zm160.6 0h-8.8c-.8 0-1.4.6-1.4 1.4 0 .8.6 1.4 1.4 1.4h8.8c.8 0 1.4-.6 1.4-1.4 0-.7-.6-1.4-1.4-1.4z"></path>
                            <path fill="#727CD6" d="M425.7 531.9H285.8c-.8 0-1.4.6-1.4 1.4 0 .8.6 1.4 1.4 1.4h139.9c.8 0 1.4-.6 1.4-1.4 0-.8-.6-1.4-1.4-1.4zm-5.4-38.3h-99.7c-1.6 0-2.9-1.3-2.9-2.9s1.3-2.9 2.9-2.9h99.7c1.6 0 2.9 1.3 2.9 2.9 0 1.6-1.3 2.9-2.9 2.9z"></path>
                            <path fill="#A4ABED" d="M403.6 509.1h-66.2c-1.6 0-2.9-1.3-2.9-2.9s1.3-2.9 2.9-2.9h66.2c1.6 0 2.9 1.3 2.9 2.9 0 1.6-1.3 2.9-2.9 2.9zm-10.8-219.9h-44.7c-1.1 0-2-.9-2-2s.9-2 2-2h44.7c1.1 0 2 .9 2 2 0 1.2-.9 2-2 2zm-15.2-12.7h-14.3c-.4 0-.7.3-.7.7s.3.7.7.7h14.3c.4 0 .7-.3.7-.7s-.3-.7-.7-.7zm66 184.9H297.4c-2 0-3.6-1.6-3.6-3.6V311.6c0-2 1.6-3.6 3.6-3.6h146.2c2 0 3.6 1.6 3.6 3.6v146.2c0 2-1.6 3.6-3.6 3.6z"></path>
                            <path fill="#A4ABED" d="M443.6 457.3H297.4c-2 0-3.6-1.6-3.6-3.6V307.5c0-2 1.6-3.6 3.6-3.6h146.2c2 0 3.6 1.6 3.6 3.6v146.2c0 2-1.6 3.6-3.6 3.6z"></path>
                            <path fill="#727CD6" d="M367.8 560.8l13.4 13.4c.9.9.9 2.4 0 3.4L367.8 591c-1.5 1.5-4.1.4-4.1-1.7v-26.7c.1-2.2 2.6-3.3 4.1-1.8z"></path>
                            <path fill="#D7DCF7" d="M415.3 575.2l-5.2-5.2c-.6-.6-1.6-.2-1.6.6v3.9L404 570c-.6-.6-1.6-.2-1.6.6v10.3c0 .8 1 1.2 1.6.6l4.5-4.5v3.9c0 .8 1 1.2 1.6.6l5.2-5.2c.4-.1.4-.7 0-1.1zm-78.3-5.1l-4.5 4.5v-3.9c0-.8-1-1.2-1.6-.6l-5.2 5.2c-.4.4-.4.9 0 1.3l5.2 5.2c.6.6 1.6.2 1.6-.6v-3.9l4.5 4.5c.6.6 1.6.2 1.6-.6v-10.3c-.1-1-1.1-1.4-1.6-.8z"></path>
                            <path fill="#FFF" d="M370.5 325c-28.1 0-50.9 22.8-50.9 50.9s22.8 50.9 50.9 50.9 50.9-22.8 50.9-50.9-22.8-50.9-50.9-50.9zm0 63.4c-6.9 0-12.5-5.6-12.5-12.5s5.6-12.5 12.5-12.5S383 369 383 375.9c0 7-5.6 12.5-12.5 12.5z"></path>
                            <path fill="#DEE3FF" d="M417.1 356.3c-3.8-9.1-10.2-16.8-18.3-22.2-4-2.7-8.5-4.9-13.2-6.4-4.8-1.5-9.8-2.3-15-2.3-7 0-13.6 1.4-19.7 4-9.1 3.8-16.8 10.2-22.2 18.3-2.7 4-4.9 8.5-6.4 13.2-1.5 4.8-2.3 9.8-2.3 15 0 7 1.4 13.6 4 19.7 3.8 9.1 10.2 16.8 18.3 22.2 8.1 5.5 17.8 8.6 28.3 8.6 7 0 13.6-1.4 19.7-4 9.1-3.8 16.8-10.2 22.2-18.3 5.5-8.1 8.6-17.8 8.6-28.3 0-6.8-1.4-13.5-4-19.5zm-17 32.2c-2.4 5.8-6.5 10.7-11.7 14.2-2.6 1.7-5.4 3.1-8.4 4s-6.2 1.4-9.6 1.4c-4.5 0-8.7-.9-12.5-2.5-5.8-2.4-10.7-6.5-14.2-11.7-1.7-2.6-3.1-5.4-4-8.4s-1.4-6.2-1.4-9.6c0-4.5.9-8.7 2.5-12.5 2.4-5.8 6.5-10.7 11.7-14.2 2.6-1.7 5.4-3.1 8.4-4s6.2-1.4 9.6-1.4c4.5 0 8.7.9 12.5 2.5 5.8 2.4 10.7 6.5 14.2 11.7 1.7 2.6 3.1 5.4 4 8.4s1.4 6.2 1.4 9.6c.1 4.4-.8 8.6-2.5 12.5z"></path>
                        </g>
                        <g class="m-organise--shape-stack">
                            <path fill="#DEE3FF" d="M477.5 252.6c0-3.2-2.9-5.7-6.6-5.7H269.4c-3.7 0-6.6 2.5-6.6 5.7v7.8h214.8l-.1-7.8z" opacity=".8"></path>
                            <path fill="#DEE3FF" d="M471.7 239.5c0-3-2.8-5.4-6.3-5.4H275.6c-3.5 0-6.3 2.4-6.3 5.4v7.4h202.4v-7.4z" opacity=".6"></path>
                            <path fill="#DEE3FF" d="M465.6 227.3c0-2.8-2.6-5.1-5.9-5.1H281.3c-3.3 0-5.9 2.2-5.9 5.1v6.9h190.1v-6.9h.1z" opacity=".4"></path>
                            <path fill="#DEE3FF" d="M459.4 215.9c0-2.6-2.4-4.7-5.5-4.7H287.1c-3.1 0-5.5 2.1-5.5 4.7v6.4h177.8v-6.4z" opacity=".2"></path>
                            <path fill="#DEE3FF" d="M453.8 205.1c0-2.5-2.3-4.4-5.2-4.4H292.3c-2.9 0-5.2 2-5.2 4.4v6.1h166.7v-6.1z" opacity=".05"></path>
                        </g>
                        <g class="m-organise--shape-collection">
                            <path fill="#FFF" d="M254 549.5v10h233v-10c3.3 0 8 6.7 8 10v70c0 3.3-2.7 6-6 6H252c-3.3 0-6-2.7-6-6v-70c.1-3.3 4.7-10 8-10z"></path>
                            <path fill="#898EE5" d="M339.5 605.7c1.1 0 2-.4 2.7-1.3l1.4 1.5c-1.1 1.3-2.5 1.9-4 1.9s-2.8-.5-3.8-1.5-1.5-2.2-1.5-3.7.5-2.7 1.5-3.7 2.3-1.5 3.7-1.5c1.6 0 3 .6 4.1 1.9l-1.4 1.6c-.7-.9-1.6-1.3-2.6-1.3-.8 0-1.6.3-2.2.8s-.9 1.3-.9 2.2.3 1.7.8 2.2c.7.6 1.4.9 2.2.9zm13-1.9c0 1.1-.4 2.1-1.2 2.8-.8.8-1.7 1.1-2.9 1.1s-2.1-.4-2.9-1.1c-.8-.8-1.2-1.7-1.2-2.8s.4-2.1 1.2-2.8c.8-.8 1.7-1.2 2.9-1.2s2.1.4 2.9 1.2c.8.8 1.2 1.7 1.2 2.8zm-6 0c0 .6.2 1.1.5 1.5.4.4.8.6 1.4.6s1-.2 1.4-.6c.4-.4.5-.9.5-1.5s-.2-1.1-.5-1.5c-.4-.4-.8-.6-1.4-.6s-1 .2-1.4.6c-.3.4-.5.9-.5 1.5zm9.8 3.9h-2.1V597h2.1v10.7zm4.1 0h-2.1V597h2.1v10.7zm8.7-1.2c-.9.8-1.9 1.2-3.1 1.2s-2.1-.4-2.9-1.1c-.8-.7-1.1-1.7-1.1-2.9s.4-2.2 1.2-2.9c.8-.7 1.7-1.1 2.8-1.1 1.1 0 2 .3 2.7 1 .7.6 1.1 1.5 1.1 2.6v1.1h-5.6c.1.4.3.8.7 1 .4.3.8.4 1.3.4.8 0 1.4-.3 1.9-.8l1 1.5zm-2-4.5c-.3-.2-.7-.4-1.1-.4s-.8.1-1.2.4-.6.6-.6 1h3.4c-.1-.4-.2-.8-.5-1zm7.9 3.9c.7 0 1.4-.4 1.9-1.1l1.3 1.4c-1 1-2.1 1.5-3.2 1.5s-2.1-.4-2.9-1.1c-.8-.7-1.2-1.7-1.2-2.9s.4-2.1 1.2-2.9 1.8-1.1 2.9-1.1c.6 0 1.1.1 1.7.3s1.1.6 1.5 1l-1.1 1.5c-.2-.3-.6-.5-.9-.7-.4-.2-.7-.2-1.1-.2-.6 0-1 .2-1.5.6-.4.4-.6.9-.6 1.5s.2 1.2.6 1.5c.4.5.9.7 1.4.7zm7.2-4.4v3.4c0 .3.1.5.2.7.2.2.3.2.5.2.4 0 .7-.2 1-.5l.8 1.5c-.7.6-1.4.9-2.1.9s-1.4-.2-1.9-.7-.8-1.1-.8-2v-3.5h-.9V600h.9v-2.3h2.2v2.3h1.9v1.5h-1.8zm3.9-2.5c-.2-.2-.4-.5-.4-.9s.1-.7.4-.9.5-.4.9-.4.7.1.9.4c.2.2.4.5.4.9s-.1.7-.4.9c-.2.2-.5.4-.9.4s-.6-.2-.9-.4zm2 8.7H386V600h2.1v7.7zm9.7-3.9c0 1.1-.4 2.1-1.2 2.8-.8.8-1.7 1.1-2.9 1.1s-2.1-.4-2.9-1.1c-.8-.8-1.2-1.7-1.2-2.8s.4-2.1 1.2-2.8c.8-.8 1.7-1.2 2.9-1.2s2.1.4 2.9 1.2c.8.8 1.2 1.7 1.2 2.8zm-6 0c0 .6.2 1.1.5 1.5.4.4.8.6 1.4.6s1-.2 1.4-.6c.4-.4.5-.9.5-1.5s-.2-1.1-.5-1.5c-.4-.4-.8-.6-1.4-.6s-1 .2-1.4.6c-.3.4-.5.9-.5 1.5zm9.7-.4v4.3h-2.1V600h2.1v.9c.6-.7 1.4-1 2.2-1 .8 0 1.5.3 2 .9.5.6.8 1.3.8 2.3v4.7h-2.1v-4.3c0-1.2-.4-1.8-1.3-1.8-.4 0-.8.2-1.1.5-.3.1-.5.6-.5 1.2z"></path>
                            <path fill="#DADCED" d="M379.2 586.3h-17.3c-1.4 0-2.5-1.1-2.5-2.5s1.1-2.5 2.5-2.5h17.3c1.4 0 2.5 1.1 2.5 2.5.1 1.3-1.1 2.5-2.5 2.5z"></path>
                        </g>
                    </g>
                    <g class="m-organise--shape-element m-organise--shape-element-notification">
                        <g>
                            <path fill="#DEE3FF" d="M733.2 739.6H514.6c-4 0-7.2-3.2-7.2-7.2V448.3c0-4 3.2-7.2 7.2-7.2h218.6c4 0 7.2 3.2 7.2 7.2v284.1c0 4-3.2 7.2-7.2 7.2z"></path>
                            <path fill="#FFF" d="M538.1 739.6V511.3c0-7.6 6.2-13.8 13.8-13.8h144c7.6 0 13.8 6.2 13.8 13.8v228.3H538.1z"></path>
                            <path fill="#A4ABED" d="M696.7 739.6H551V543.8c0-1.7 1.3-3 3-3h139.7c1.7 0 3 1.3 3 3v195.8z"></path>
                            <path fill="#727CDD" d="M613.9 523.6h20c.7 0 1.4.4 1.7 1.1.1-.3.2-.5.2-.8 0-1-.9-1.9-1.9-1.9h-20c-1 0-1.9.9-1.9 1.9 0 .3.1.6.2.8.3-.7.9-1.1 1.7-1.1z"></path>
                            <path fill="#A4ABED" d="M613.9 525.7h20c.7 0 1.4-.4 1.7-1.1-.3-.6-1-1.1-1.7-1.1h-20c-.7 0-1.4.4-1.7 1.1.3.7.9 1.1 1.7 1.1zm10-7.1c-1 0-1.9-.9-1.9-1.9s.9-1.9 1.9-1.9c1 0 1.9.9 1.9 1.9s-.9 1.9-1.9 1.9zM538.1 572c-1.8 0-3.3 0-3.3-3.3v-16.2c0-3 1.5-3.3 3.3-3.3V572zm0 27.4c-1.8 0-3.3 0-3.3-3.3v-16.2c0-3 1.5-3.3 3.3-3.3v22.8z"></path>
                            <path fill="#727CD6" d="M682 688.1H565.7c-2 0-3.7-1.6-3.7-3.7v-64.6c0-2 1.6-3.7 3.7-3.7H682c2 0 3.7 1.6 3.7 3.7v64.6c0 2.1-1.7 3.7-3.7 3.7z"></path>
                            <path fill="#FFF" d="M682 685.1H565.7c-2 0-3.7-1.6-3.7-3.7v-79c0-2 1.6-3.7 3.7-3.7H682c2 0 3.7 1.6 3.7 3.7v79c0 2.1-1.7 3.7-3.7 3.7z"></path>
                            <path fill="#727CD6" d="M605.1 636.1H577c-1 0-1.9-.8-1.9-1.9 0-1 .8-1.9 1.9-1.9h28.1c1 0 1.9.8 1.9 1.9 0 1-.9 1.9-1.9 1.9z"></path>
                            <path fill="#D7DCF7" d="M592.1 553.5H564c-1 0-1.9-.8-1.9-1.9 0-1 .8-1.9 1.9-1.9h28.1c1 0 1.9.8 1.9 1.9-.1 1.1-.9 1.9-1.9 1.9zm91.3 0h-10.5c-1 0-1.9-.8-1.9-1.9 0-1 .8-1.9 1.9-1.9h10.5c1 0 1.9.8 1.9 1.9 0 1.1-.9 1.9-1.9 1.9z"></path>
                            <path fill="#A4ABED" d="M629.6 616.9h-52c-1.4 0-2.5-1.1-2.5-2.5s1.1-2.5 2.5-2.5h52c1.4 0 2.5 1.1 2.5 2.5 0 1.3-1.2 2.5-2.5 2.5z"></path>
                            <path fill="#6671D3" d="M670.5 616.9h-7.9c-1.4 0-2.5-1.1-2.5-2.5s1.1-2.5 2.5-2.5h7.9c1.4 0 2.5 1.1 2.5 2.5 0 1.3-1.2 2.5-2.5 2.5z"></path>
                            <path fill="#727CD6" d="M660.7 636.1h-45.3c-1 0-1.9-.8-1.9-1.9s.8-1.9 1.9-1.9h45.3c1 0 1.9.8 1.9 1.9s-.9 1.9-1.9 1.9zm-43.8 9.7H577c-1 0-1.9-.8-1.9-1.9 0-1 .8-1.9 1.9-1.9h39.8c1 0 1.9.8 1.9 1.9s-.8 1.9-1.8 1.9zm53.7 30.2h-93.8c-1.4 0-2.5-1.1-2.5-2.5v-13.6c0-1.4 1.1-2.5 2.5-2.5h93.8c1.4 0 2.5 1.1 2.5 2.5v13.6c0 1.4-1.1 2.5-2.5 2.5zm.8-30.2h-43.8c-1 0-1.9-.8-1.9-1.9 0-1 .8-1.9 1.9-1.9h43.8c1 0 1.9.8 1.9 1.9-.1 1.1-.9 1.9-1.9 1.9z"></path>
                            <path fill="#898EE5" d="M654 667.7h-60.4c-.6 0-1-.5-1-1s.5-1 1-1H654c.6 0 1 .5 1 1s-.5 1-1 1z"></path>
                            <path fill="none" class="m-organise--shape-element-multiple-stroke" d="M733.2 739.6H514.6c-4 0-7.2-3.2-7.2-7.2V448.3c0-4 3.2-7.2 7.2-7.2h218.6c4 0 7.2 3.2 7.2 7.2v284.1c0 4-3.2 7.2-7.2 7.2z"></path>
                        </g>
                        <g class="m-organise--shape-stack">
                            <path fill="#DEE3FF" d="M731.8 433.3c0-3.2-2.9-5.7-6.6-5.7H523.6c-3.7 0-6.6 2.5-6.6 5.7v7.8h214.8v-7.8z" opacity=".8"></path>
                            <path fill="#DEE3FF" d="M725.9 420.3c0-3-2.8-5.4-6.3-5.4H529.8c-3.5 0-6.3 2.4-6.3 5.4v7.3h202.4v-7.3z" opacity=".6"></path>
                            <path fill="#DEE3FF" d="M719.8 408.1c0-2.8-2.6-5.1-5.9-5.1H535.5c-3.3 0-5.9 2.2-5.9 5.1v6.8h190.1v-6.8h.1z" opacity=".4"></path>
                            <path fill="#DEE3FF" d="M713.6 396.6c0-2.6-2.4-4.7-5.5-4.7H541.3c-3.1 0-5.5 2.1-5.5 4.7v6.4h177.8v-6.4z" opacity=".2"></path>
                            <path fill="#DEE3FF" d="M708.1 385.9c0-2.5-2.3-4.4-5.2-4.4H546.5c-2.9 0-5.2 2-5.2 4.4v6H708l.1-6z" opacity=".05"></path>
                        </g>
                        <g class="m-organise--shape-collection">
                            <path fill="#FFF" d="M507.3 673.5v10h233v-10c3.3 0 8 6.7 8 10v70c0 3.3-2.7 6-6 6h-237c-3.3 0-6-2.7-6-6v-70c.1-3.3 4.8-10 8-10z"></path>
                            <path fill="#898EE5" d="M592.8 729.7c1.1 0 2-.4 2.7-1.3l1.4 1.5c-1.1 1.3-2.5 1.9-4 1.9s-2.8-.5-3.8-1.5-1.5-2.2-1.5-3.7.5-2.7 1.5-3.7 2.3-1.5 3.7-1.5c1.6 0 3 .6 4.1 1.9l-1.4 1.6c-.7-.9-1.6-1.3-2.6-1.3-.8 0-1.6.3-2.2.8-.6.5-.9 1.3-.9 2.2s.3 1.7.8 2.2 1.4.9 2.2.9zm13-1.9c0 1.1-.4 2.1-1.2 2.8-.8.8-1.7 1.1-2.9 1.1s-2.1-.4-2.9-1.1c-.8-.8-1.2-1.7-1.2-2.8s.4-2.1 1.2-2.8c.8-.8 1.7-1.2 2.9-1.2s2.1.4 2.9 1.2c.9.8 1.2 1.7 1.2 2.8zm-5.9 0c0 .6.2 1.1.5 1.5s.8.6 1.4.6c.6 0 1-.2 1.4-.6s.5-.9.5-1.5-.2-1.1-.5-1.5c-.4-.4-.8-.6-1.4-.6-.6 0-1 .2-1.4.6-.4.4-.5.9-.5 1.5zm9.7 3.9h-2.1V721h2.1v10.7zm4.2 0h-2.1V721h2.1v10.7zm8.7-1.2c-.9.8-1.9 1.2-3.1 1.2-1.2 0-2.1-.4-2.9-1.1-.8-.7-1.1-1.7-1.1-2.9s.4-2.2 1.2-2.9 1.7-1.1 2.8-1.1 2 .3 2.7 1c.7.6 1.1 1.5 1.1 2.6v1.1h-5.6c.1.4.3.8.7 1 .4.3.8.4 1.3.4.8 0 1.4-.3 1.9-.8l1 1.5zm-2.1-4.5c-.3-.2-.7-.4-1.1-.4-.4 0-.8.1-1.2.4-.4.3-.6.6-.6 1h3.4c0-.4-.2-.8-.5-1zm7.9 3.9c.7 0 1.4-.4 1.9-1.1l1.3 1.4c-1 1-2.1 1.5-3.2 1.5s-2.1-.4-2.9-1.1c-.8-.7-1.2-1.7-1.2-2.9s.4-2.1 1.2-2.9c.8-.7 1.8-1.1 2.9-1.1.6 0 1.1.1 1.7.3.6.2 1.1.6 1.5 1l-1.1 1.5c-.2-.3-.6-.5-.9-.7s-.7-.2-1.1-.2c-.6 0-1 .2-1.5.6s-.6.9-.6 1.5.2 1.2.6 1.5.9.7 1.4.7zm7.2-4.4v3.4c0 .3.1.5.2.7s.3.2.5.2c.4 0 .7-.2 1-.5l.8 1.5c-.7.6-1.4.9-2.1.9s-1.4-.2-1.9-.7-.8-1.1-.8-2v-3.5h-.9V724h.9v-2.3h2.2v2.3h1.9v1.5h-1.8zm3.9-2.5c-.2-.2-.4-.5-.4-.9s.1-.7.4-.9.5-.4.9-.4.7.1.9.4.4.5.4.9-.1.7-.4.9-.5.4-.9.4c-.3-.1-.6-.2-.9-.4zm2 8.7h-2.1V724h2.1v7.7zm9.7-3.9c0 1.1-.4 2.1-1.2 2.8-.8.8-1.7 1.1-2.9 1.1s-2.1-.4-2.9-1.1c-.8-.8-1.2-1.7-1.2-2.8s.4-2.1 1.2-2.8c.8-.8 1.7-1.2 2.9-1.2s2.1.4 2.9 1.2 1.2 1.7 1.2 2.8zm-6 0c0 .6.2 1.1.5 1.5s.8.6 1.4.6c.6 0 1-.2 1.4-.6s.5-.9.5-1.5-.2-1.1-.5-1.5c-.4-.4-.8-.6-1.4-.6-.6 0-1 .2-1.4.6-.3.4-.5.9-.5 1.5zm9.8-.4v4.3h-2.1V724h2.1v.9c.6-.7 1.4-1 2.2-1s1.5.3 2 .9c.5.6.8 1.3.8 2.3v4.7h-2.1v-4.3c0-1.2-.4-1.8-1.3-1.8-.4 0-.8.2-1.1.5-.4.1-.5.6-.5 1.2z"></path>
                            <path fill="#DADCED" d="M632.6 710.3h-17.3c-1.4 0-2.5-1.1-2.5-2.5s1.1-2.5 2.5-2.5h17.3c1.4 0 2.5 1.1 2.5 2.5 0 1.3-1.2 2.5-2.5 2.5z"></path>
                        </g>
                    </g>
                    <g class="m-organise--shape-element m-organise--shape-element-text">
                        <g>
                            <path fill="#DEE3FF" d="M507.6 45.7v308c0 4 3.2 7.2 7.2 7.2h218.6c4 0 7.2-3.2 7.2-7.2v-308h-233z"></path>
                            <path fill="#A4ABED" d="M740.6 7.2c0-4-3.2-7.2-7.2-7.2H514.8c-4 0-7.2 3.2-7.2 7.2v38.5h233V7.2z"></path>
                            <path fill="#727CD6" d="M628.5 24.7c.9 0 1.8-.8 1.7-1.8 0-1-.8-1.8-1.8-1.8h-77.6c-1 0-1.8.8-1.8 1.8s.8 1.8 1.8 1.8h77.7zm-95.6 5.2c2 0 3.7-1.7 3.7-3.7v-6c0-2-1.6-3.7-3.7-3.7h-6c-2 0-3.7 1.6-3.7 3.7v6c0 2 1.6 3.7 3.7 3.7h6z"></path>
                            <path fill="#FFF" d="M656 212.4H525.7c-1.6 0-2.9-1.3-2.9-2.9s1.3-2.9 2.9-2.9H656c1.6 0 2.9 1.3 2.9 2.9 0 1.6-1.3 2.9-2.9 2.9zm62.3 0h-46.6c-1.6 0-2.9-1.3-2.9-2.9s1.3-2.9 2.9-2.9h46.6c1.6 0 2.9 1.3 2.9 2.9.1 1.6-1.2 2.9-2.9 2.9z"></path>
                            <path fill="#A4ABED" d="M687.8 230.3h-99.6c-1.6 0-2.9-1.3-2.9-2.9s1.3-2.9 2.9-2.9h99.6c1.6 0 2.9 1.3 2.9 2.9 0 1.5-1.3 2.9-2.9 2.9z"></path>
                            <path fill="#FFF" d="M572.3 230.3h-46.6c-1.6 0-2.9-1.3-2.9-2.9s1.3-2.9 2.9-2.9h46.6c1.6 0 2.9 1.3 2.9 2.9 0 1.5-1.3 2.9-2.9 2.9zm46.2 18.2h-92.8c-1.6 0-2.9-1.3-2.9-2.9 0-1.6 1.3-2.9 2.9-2.9h92.8c1.6 0 2.9 1.3 2.9 2.9 0 1.5-1.3 2.9-2.9 2.9zm81.2 0h-65.4c-1.6 0-2.9-1.3-2.9-2.9 0-1.6 1.3-2.9 2.9-2.9h65.4c1.6 0 2.9 1.3 2.9 2.9.1 1.5-1.3 2.9-2.9 2.9zm-127.4 17.8h-46.6c-1.6 0-2.9-1.3-2.9-2.9s1.3-2.9 2.9-2.9h46.6c1.6 0 2.9 1.3 2.9 2.9s-1.3 2.9-2.9 2.9z"></path>
                            <path fill="#A4ABED" d="M604.6 297.5h-78.9c-1.6 0-2.9-1.3-2.9-2.9s1.3-2.9 2.9-2.9h78.9c1.6 0 2.9 1.3 2.9 2.9 0 1.7-1.3 2.9-2.9 2.9zm87 0h-71.2c-1.6 0-2.9-1.3-2.9-2.9s1.3-2.9 2.9-2.9h71.2c1.6 0 2.9 1.3 2.9 2.9.1 1.7-1.2 2.9-2.9 2.9z"></path>
                            <path fill="#FFF" d="M702.4 315.4h-92.9c-1.6 0-2.9-1.3-2.9-2.9s1.3-2.9 2.9-2.9h93c1.6 0 2.9 1.3 2.9 2.9-.1 1.6-1.3 2.9-3 2.9zm-108.8 0h-67.9c-1.6 0-2.9-1.3-2.9-2.9s1.3-2.9 2.9-2.9h67.9c1.6 0 2.9 1.3 2.9 2.9s-1.3 2.9-2.9 2.9zm-28.9 18.2h-38.9c-1.6 0-2.9-1.3-2.9-2.9s1.3-2.9 2.9-2.9h38.9c1.6 0 2.9 1.3 2.9 2.9-.1 1.5-1.4 2.9-2.9 2.9zm71.6 0c1.6 0 2.9-1.3 2.9-2.9s-1.3-2.9-2.9-2.9h-55.9c-1.6 0-2.9 1.3-2.9 2.9s1.3 2.9 2.9 2.9h55.9zM656 71.4H525.7c-1.6 0-2.9-1.3-2.9-2.9s1.3-2.9 2.9-2.9H656c1.6 0 2.9 1.3 2.9 2.9s-1.3 2.9-2.9 2.9zm62.3 0h-46.6c-1.6 0-2.9-1.3-2.9-2.9s1.3-2.9 2.9-2.9h46.6c1.6 0 2.9 1.3 2.9 2.9.1 1.6-1.2 2.9-2.9 2.9z"></path>
                            <path fill="#A4ABED" d="M687.8 89.3h-99.6c-1.6 0-2.9-1.3-2.9-2.9s1.3-2.9 2.9-2.9h99.6c1.6 0 2.9 1.3 2.9 2.9 0 1.5-1.3 2.9-2.9 2.9z"></path>
                            <path fill="#FFF" d="M572.3 89.3h-46.6c-1.6 0-2.9-1.3-2.9-2.9s1.3-2.9 2.9-2.9h46.6c1.6 0 2.9 1.3 2.9 2.9 0 1.5-1.3 2.9-2.9 2.9zm46.2 18.2h-92.8c-1.6 0-2.9-1.3-2.9-2.9s1.3-2.9 2.9-2.9h92.8c1.6 0 2.9 1.3 2.9 2.9 0 1.5-1.3 2.9-2.9 2.9zm81.2 0h-65.4c-1.6 0-2.9-1.3-2.9-2.9s1.3-2.9 2.9-2.9h65.4c1.6 0 2.9 1.3 2.9 2.9.1 1.5-1.3 2.9-2.9 2.9zm-97.4 17.8h-76.6c-1.6 0-2.9-1.3-2.9-2.9s1.3-2.9 2.9-2.9h76.6c1.6 0 2.9 1.3 2.9 2.9s-1.3 2.9-2.9 2.9z"></path>
                            <path fill="#FFF" d="M572.3 143.3h-46.6c-1.6 0-2.9-1.3-2.9-2.9 0-1.6 1.3-2.9 2.9-2.9h46.6c1.6 0 2.9 1.3 2.9 2.9s-1.3 2.9-2.9 2.9zm130.1 31.1h-92.9c-1.6 0-2.9-1.3-2.9-2.9s1.3-2.9 2.9-2.9h93c1.6 0 2.9 1.3 2.9 2.9-.1 1.6-1.3 2.9-3 2.9zm-108.8 0h-67.9c-1.6 0-2.9-1.3-2.9-2.9s1.3-2.9 2.9-2.9h67.9c1.6 0 2.9 1.3 2.9 2.9 0 1.6-1.3 2.9-2.9 2.9zm-28.9 18.2h-38.9c-1.6 0-2.9-1.3-2.9-2.9s1.3-2.9 2.9-2.9h38.9c1.6 0 2.9 1.3 2.9 2.9-.1 1.5-1.4 2.9-2.9 2.9zm71.6 0c1.6 0 2.9-1.3 2.9-2.9s-1.3-2.9-2.9-2.9h-55.9c-1.6 0-2.9 1.3-2.9 2.9s1.3 2.9 2.9 2.9h55.9z"></path>
                        </g>
                        <g class="m-organise--shape-collection">
                            <path fill="#FFF" d="M507.3 275.5v10h233v-10c3.3 0 8 6.7 8 10v70c0 3.3-2.7 6-6 6h-237c-3.3 0-6-2.7-6-6v-70c.1-3.3 4.8-10 8-10z"></path>
                            <path fill="#898EE5" d="M592.8 331.7c1.1 0 2-.4 2.7-1.3l1.4 1.5c-1.1 1.3-2.5 1.9-4 1.9s-2.8-.5-3.8-1.5-1.5-2.2-1.5-3.7.5-2.7 1.5-3.7 2.3-1.5 3.7-1.5c1.6 0 3 .6 4.1 1.9l-1.4 1.6c-.7-.9-1.6-1.3-2.6-1.3-.8 0-1.6.3-2.2.8-.6.5-.9 1.3-.9 2.2 0 .9.3 1.7.8 2.2s1.4.9 2.2.9zm13-1.9c0 1.1-.4 2.1-1.2 2.8-.8.8-1.7 1.1-2.9 1.1s-2.1-.4-2.9-1.1c-.8-.8-1.2-1.7-1.2-2.8s.4-2.1 1.2-2.8c.8-.8 1.7-1.2 2.9-1.2s2.1.4 2.9 1.2c.9.8 1.2 1.7 1.2 2.8zm-5.9 0c0 .6.2 1.1.5 1.5s.8.6 1.4.6c.6 0 1-.2 1.4-.6s.5-.9.5-1.5-.2-1.1-.5-1.5c-.4-.4-.8-.6-1.4-.6-.6 0-1 .2-1.4.6-.4.4-.5.9-.5 1.5zm9.7 3.9h-2.1V323h2.1v10.7zm4.2 0h-2.1V323h2.1v10.7zm8.7-1.2c-.9.8-1.9 1.2-3.1 1.2-1.2 0-2.1-.4-2.9-1.1-.8-.7-1.1-1.7-1.1-2.9s.4-2.2 1.2-2.9c.8-.7 1.7-1.1 2.8-1.1s2 .3 2.7 1c.7.6 1.1 1.5 1.1 2.6v1.1h-5.6c.1.4.3.8.7 1 .4.3.8.4 1.3.4.8 0 1.4-.3 1.9-.8l1 1.5zm-2.1-4.5c-.3-.2-.7-.4-1.1-.4-.4 0-.8.1-1.2.4s-.6.6-.6 1h3.4c0-.4-.2-.8-.5-1zm7.9 3.9c.7 0 1.4-.4 1.9-1.1l1.3 1.4c-1 1-2.1 1.5-3.2 1.5s-2.1-.4-2.9-1.1c-.8-.7-1.2-1.7-1.2-2.9s.4-2.1 1.2-2.9c.8-.7 1.8-1.1 2.9-1.1.6 0 1.1.1 1.7.3.6.2 1.1.6 1.5 1l-1.1 1.5c-.2-.3-.6-.5-.9-.7s-.7-.2-1.1-.2c-.6 0-1 .2-1.5.6s-.6.9-.6 1.5.2 1.2.6 1.5.9.7 1.4.7zm7.2-4.4v3.4c0 .3.1.5.2.7s.3.2.5.2c.4 0 .7-.2 1-.5l.8 1.5c-.7.6-1.4.9-2.1.9s-1.4-.2-1.9-.7-.8-1.1-.8-2v-3.5h-.9V326h.9v-2.3h2.2v2.3h1.9v1.5h-1.8zm3.9-2.5c-.2-.2-.4-.5-.4-.9s.1-.7.4-.9.5-.4.9-.4.7.1.9.4.4.5.4.9-.1.7-.4.9-.5.4-.9.4c-.3-.1-.6-.2-.9-.4zm2 8.7h-2.1V326h2.1v7.7zm9.7-3.9c0 1.1-.4 2.1-1.2 2.8-.8.8-1.7 1.1-2.9 1.1s-2.1-.4-2.9-1.1c-.8-.8-1.2-1.7-1.2-2.8s.4-2.1 1.2-2.8c.8-.8 1.7-1.2 2.9-1.2s2.1.4 2.9 1.2c.8.8 1.2 1.7 1.2 2.8zm-6 0c0 .6.2 1.1.5 1.5s.8.6 1.4.6c.6 0 1-.2 1.4-.6s.5-.9.5-1.5-.2-1.1-.5-1.5c-.4-.4-.8-.6-1.4-.6-.6 0-1 .2-1.4.6-.3.4-.5.9-.5 1.5zm9.8-.4v4.3h-2.1V326h2.1v.9c.6-.7 1.4-1 2.2-1s1.5.3 2 .9.8 1.3.8 2.3v4.7h-2.1v-4.3c0-1.2-.4-1.8-1.3-1.8-.4 0-.8.2-1.1.5-.4.1-.5.6-.5 1.2z"></path>
                            <path fill="#DADCED" d="M632.6 312.3h-17.3c-1.4 0-2.5-1.1-2.5-2.5s1.1-2.5 2.5-2.5h17.3c1.4 0 2.5 1.1 2.5 2.5 0 1.3-1.2 2.5-2.5 2.5z"></path>
                        </g>
                    </g>
                </g>
                <g class="m-organise--shape-select-tag" filter="url(#organise-shape-select-tag-shadow)">
                    <path fill="#FFF" d="M435.6 179.9c0-3.2-2.6-5.8-5.8-5.8H214.9c-3.2 0-5.8 2.6-5.8 5.8v37.4h226.5v-37.4z"></path>
                    <rect fill="#F4F8FB" x="209.1" y="217.3" width="226.5" height="108.6"></rect>
                    <path fill="#F4F8FB" d="M209.1,423.2c0,3.2,2.6,5.8,5.8,5.8h214.9c3.2,0,5.8-2.6,5.8-5.8v-23.9H209.1V423.2z"></path>
                    <polygon fill="#7A7DE1" points="209.1,325.9 209.1,399.4 435.6,399.4 435.6,325.9   "></polygon>
                    <path fill="#CEDDE9" d="M209.1 253.4h226.5v.9H209.1zm0 36.3h226.5v.9H209.1z"></path>
                    <path fill="#676BBB" d="M209.1 362.1h226.5v.9H209.1z"></path>
                    <path fill="#0D263A" d="M230.8 231.3v6c0 1-.3 1.7-.9 2.3-.6.6-1.4.8-2.4.8s-1.9-.3-2.5-.8c-.6-.6-.9-1.3-.9-2.3v-6h1.6v6c0 .6.2 1.1.5 1.4.3.3.8.5 1.4.5 1.2 0 1.8-.6 1.8-1.9v-6h1.4zm5.3 7.2c0-.3-.1-.5-.3-.6s-.6-.3-1.1-.4c-.5-.1-.9-.2-1.3-.4-.8-.4-1.1-.9-1.1-1.6 0-.6.2-1.1.7-1.4.5-.4 1.1-.6 1.9-.6.8 0 1.4.2 1.9.6.5.4.7.9.7 1.5H236c0-.3-.1-.5-.3-.7s-.5-.3-.9-.3c-.3 0-.6.1-.8.2-.2.2-.3.4-.3.6 0 .2.1.4.3.5s.6.3 1.2.4c.6.1 1.1.3 1.4.5.3.2.6.4.7.6.2.3.2.6.2.9 0 .6-.2 1.1-.7 1.5s-1.2.6-2 .6c-.5 0-1-.1-1.5-.3-.4-.2-.8-.5-1-.8s-.4-.7-.4-1.1h1.5c0 .4.2.6.4.8s.6.3 1 .3.7-.1.9-.2.4-.3.4-.6zm5.8 2c-1 0-1.7-.3-2.3-.9-.6-.6-.9-1.4-.9-2.4v-.2c0-.7.1-1.3.4-1.8.3-.5.6-.9 1.1-1.2s1-.4 1.6-.4c.9 0 1.6.3 2.1.9s.7 1.4.7 2.5v.6h-4.4c0 .6.2 1 .6 1.3.3.3.7.5 1.2.5.7 0 1.3-.3 1.7-.8l.8.8c-.3.4-.6.7-1.1.9-.5.1-1 .2-1.5.2zm-.2-5.8c-.4 0-.7.1-1 .4-.3.3-.4.7-.5 1.2h2.9v-.1c0-.5-.2-.9-.4-1.1-.3-.2-.6-.4-1-.4zm7.5.3h-.6c-.7 0-1.2.3-1.4.8v4.6h-1.5v-6.7h1.4v.7c.4-.6.9-.9 1.5-.9.2 0 .4 0 .5.1l.1 1.4zm5.9 5.4h-1.6v-9h1.6v9zm3.2-6.7v.8c.5-.6 1.1-.9 2-.9 1.4 0 2.1.8 2.1 2.4v4.4h-1.5V236c0-.4-.1-.7-.3-.9s-.5-.3-.9-.3c-.6 0-1.1.3-1.4.8v4.8h-1.5v-6.7h1.5zm7.6-1.7v1.6h1.2v1.1h-1.2v3.7c0 .3.1.4.2.6.1.1.3.2.5.2s.3 0 .5-.1v1.2c-.3.1-.7.1-1 .1-1.2 0-1.7-.6-1.7-1.9v-3.8h-1.1v-1.1h1.1V232h1.5zm5.3 8.5c-1 0-1.7-.3-2.3-.9-.6-.6-.9-1.4-.9-2.4v-.2c0-.7.1-1.3.4-1.8s.6-.9 1.1-1.2 1-.4 1.6-.4c.9 0 1.6.3 2.1.9s.7 1.4.7 2.5v.6h-4.4c0 .6.2 1 .6 1.3.3.3.7.5 1.2.5.7 0 1.3-.3 1.7-.8l.8.8c-.3.4-.6.7-1.1.9s-1 .2-1.5.2zm-.2-5.8c-.4 0-.7.1-1 .4-.3.3-.4.7-.5 1.2h2.9v-.1c0-.5-.2-.9-.4-1.1-.3-.2-.6-.4-1-.4zm7.5.3h-.6c-.7 0-1.2.3-1.4.8v4.6H275v-6.7h1.4v.7c.4-.6.9-.9 1.5-.9.2 0 .4 0 .5.1l.1 1.4zm1.6 5.4v-5.6h-1v-1.1h1v-.7c0-.7.2-1.3.6-1.7s1-.6 1.7-.6c.3 0 .5 0 .8.1v1.2h-.6c-.7 0-1.1.4-1.1 1.1v.6h1.4v1.1h-1.4v5.6h-1.4zm8 0c-.1-.1-.1-.3-.2-.6-.5.5-1.1.7-1.8.7s-1.2-.2-1.6-.6c-.4-.4-.6-.9-.6-1.4 0-.7.3-1.3.8-1.6.5-.4 1.3-.6 2.3-.6h.9v-.4c0-.3-.1-.6-.3-.8s-.5-.3-.9-.3c-.3 0-.6.1-.8.3-.2.2-.3.4-.3.7H284c0-.4.1-.7.4-1 .2-.3.6-.6 1-.8s.9-.3 1.4-.3c.8 0 1.4.2 1.9.6.5.4.7.9.7 1.7v3c0 .6.1 1.1.3 1.4v.1l-1.6-.1zm-1.7-1.1c.3 0 .6-.1.8-.2.3-.1.5-.3.6-.6v-1.3h-.8c-.6 0-1 .1-1.3.3s-.4.5-.4.8.1.5.3.7c.3.2.5.3.8.3zm7.3 0c.4 0 .7-.1.9-.3.2-.2.4-.5.4-.8h1.4c0 .4-.1.8-.4 1.2-.2.4-.6.6-1 .9-.4.2-.9.3-1.4.3-.9 0-1.7-.3-2.2-.9-.5-.6-.8-1.4-.8-2.5v-.2c0-1 .3-1.8.8-2.4.5-.6 1.3-.9 2.2-.9.8 0 1.4.2 1.9.7s.8 1.1.8 1.8H295c0-.4-.1-.7-.4-.9-.2-.2-.6-.4-.9-.4-.5 0-.9.2-1.1.5s-.4.9-.4 1.6v.2c0 .7.1 1.3.4 1.6.2.3.6.5 1.1.5zm6.8 1.2c-1 0-1.7-.3-2.3-.9-.6-.6-.9-1.4-.9-2.4v-.2c0-.7.1-1.3.4-1.8s.6-.9 1.1-1.2 1-.4 1.6-.4c.9 0 1.6.3 2.1.9s.7 1.4.7 2.5v.6h-4.4c0 .6.2 1 .6 1.3.3.3.7.5 1.2.5.7 0 1.3-.3 1.7-.8l.8.8c-.3.4-.6.7-1.1.9s-.9.2-1.5.2zm-.1-5.8c-.4 0-.7.1-1 .4-.3.3-.4.7-.5 1.2h2.9v-.1c0-.5-.2-.9-.4-1.1-.3-.2-.6-.4-1-.4z"></path>
                    <path fill="#0D263A" d="M229.3 310h-3.5l-.7 2.1h-1.6l3.4-9h1.4l3.4 9H230l-.7-2.1zm-3.1-1.3h2.6l-1.3-3.7-1.3 3.7zm11.9.1c0 1-.2 1.9-.7 2.5s-1.1.9-1.9.9c-.7 0-1.3-.2-1.8-.7v3.2h-1.5v-9.3h1.4l.1.7c.4-.5 1-.8 1.8-.8s1.5.3 1.9.9c.5.5.7 1.4.7 2.6zm-1.5-.2c0-.7-.1-1.2-.4-1.6-.3-.4-.6-.6-1.1-.6-.6 0-1.1.3-1.3.8v3c.3.5.7.8 1.3.8.5 0 .9-.2 1.1-.6s.4-1 .4-1.8zm8.7.2c0 1-.2 1.9-.7 2.5s-1.1.9-1.9.9c-.7 0-1.3-.2-1.8-.7v3.2h-1.5v-9.3h1.4l.1.7c.4-.5 1-.8 1.8-.8s1.5.3 1.9.9c.4.5.7 1.4.7 2.6zm-1.5-.2c0-.7-.1-1.2-.4-1.6-.3-.4-.6-.6-1.1-.6-.6 0-1.1.3-1.3.8v3c.3.5.7.8 1.3.8.5 0 .9-.2 1.1-.6.2-.4.4-1 .4-1.8z"></path>
                    <path fill="#FFF" d="M226.3 339.7l2.6 6.9 2.6-6.9h2v9h-1.6v-3l.2-4-2.7 6.9h-1.1l-2.7-6.9.2 4v3h-1.6v-9h2.1zm8.6 5.6c0-.7.1-1.2.4-1.8.3-.5.6-.9 1.1-1.2.5-.3 1-.4 1.6-.4.9 0 1.6.3 2.2.9s.9 1.4.9 2.3v.4c0 .7-.1 1.3-.4 1.8-.3.5-.6.9-1.1 1.2s-1 .4-1.6.4c-.9 0-1.7-.3-2.3-.9s-.8-1.5-.8-2.7zm1.5.2c0 .7.1 1.2.4 1.6s.7.6 1.2.6.9-.2 1.2-.6.4-1 .4-1.7-.1-1.2-.4-1.6-.7-.6-1.2-.6-.9.2-1.2.6c-.2.3-.4.9-.4 1.7zm7.9-5.1v1.6h1.2v1.1h-1.2v3.7c0 .3.1.4.2.6.1.1.3.2.5.2s.3 0 .5-.1v1.2c-.3.1-.7.1-1 .1-1.2 0-1.7-.6-1.7-1.9v-3.8h-1.1V342h1.1v-1.6h1.5zm2.4-.1c0-.2.1-.4.2-.6s.4-.2.6-.2c.3 0 .5.1.6.2s.2.3.2.6c0 .2-.1.4-.2.6-.1.2-.4.2-.6.2-.3 0-.5-.1-.6-.2-.2-.2-.2-.4-.2-.6zm1.6 8.4h-1.5V342h1.5v6.7zm1.3-3.4c0-.7.1-1.2.4-1.8.3-.5.6-.9 1.1-1.2.5-.3 1-.4 1.6-.4.9 0 1.6.3 2.2.9s.9 1.4.9 2.3v.4c0 .7-.1 1.3-.4 1.8-.3.5-.6.9-1.1 1.2-.5.3-1 .4-1.6.4-.9 0-1.7-.3-2.3-.9s-.8-1.5-.8-2.7zm1.5.2c0 .7.1 1.2.4 1.6s.7.6 1.2.6.9-.2 1.2-.6.4-1 .4-1.7-.1-1.2-.4-1.6-.7-.6-1.2-.6-.9.2-1.2.6c-.2.3-.4.9-.4 1.7zm7.4-3.5v.8c.5-.6 1.1-.9 2-.9 1.4 0 2.1.8 2.1 2.4v4.4h-1.5v-4.3c0-.4-.1-.7-.3-.9-.2-.2-.5-.3-.9-.3-.6 0-1.1.3-1.4.8v4.8H257V342h1.5z"></path>
                    <path fill="#FFF" d="M231.1 381.3c-.1 1-.4 1.7-1.1 2.3s-1.4.8-2.5.8c-.7 0-1.4-.2-1.9-.5s-1-.8-1.3-1.5c-.3-.6-.5-1.4-.5-2.2v-.8c0-.9.2-1.6.5-2.2s.7-1.1 1.3-1.5 1.2-.5 2-.5c1 0 1.8.3 2.4.8.6.5 1 1.3 1.1 2.3h-1.6c-.1-.6-.3-1.1-.6-1.4s-.7-.4-1.3-.4c-.7 0-1.2.2-1.6.7-.4.5-.6 1.2-.6 2.2v.8c0 1 .2 1.7.5 2.2s.9.8 1.5.8 1.1-.1 1.4-.4c.3-.3.5-.7.6-1.4l1.7-.1zm1-.5c0-.7.1-1.2.4-1.8.3-.5.6-.9 1.1-1.2.5-.3 1-.4 1.6-.4.9 0 1.6.3 2.2.9s.9 1.4.9 2.3v.4c0 .7-.1 1.3-.4 1.8-.3.5-.6.9-1.1 1.2-.5.3-1 .4-1.6.4-.9 0-1.7-.3-2.3-.9-.5-.7-.8-1.5-.8-2.7zm1.5.2c0 .7.1 1.2.4 1.6s.7.6 1.2.6.9-.2 1.2-.6.4-1 .4-1.7-.1-1.2-.4-1.6c-.3-.4-.7-.6-1.2-.6s-.9.2-1.2.6c-.2.3-.4.9-.4 1.7zm7.6 3.3h-1.5v-9.5h1.5v9.5zm1.4-3.5c0-.7.1-1.2.4-1.8.3-.5.6-.9 1.1-1.2.5-.3 1-.4 1.6-.4.9 0 1.6.3 2.2.9s.9 1.4.9 2.3v.4c0 .7-.1 1.3-.4 1.8-.3.5-.6.9-1.1 1.2s-1 .4-1.6.4c-.9 0-1.7-.3-2.3-.9-.5-.7-.8-1.5-.8-2.7zm1.5.2c0 .7.1 1.2.4 1.6s.7.6 1.2.6.9-.2 1.2-.6.4-1 .4-1.7-.1-1.2-.4-1.6c-.3-.4-.7-.6-1.2-.6s-.9.2-1.2.6c-.3.3-.4.9-.4 1.7zm9.5-2.1h-.6c-.7 0-1.2.3-1.4.8v4.6h-1.5v-6.7h1.4v.7c.4-.6.9-.9 1.5-.9.2 0 .4 0 .5.1l.1 1.4z"></path>
                    <path fill="#0D263A" d="M225.9 423h-1.6v-9h1.6v9zm3.2-6.7v.8c.5-.6 1.1-.9 2-.9 1.4 0 2.1.8 2.1 2.4v4.4h-1.5v-4.3c0-.4-.1-.7-.3-.9-.2-.2-.5-.3-.9-.3-.6 0-1.1.3-1.4.8v4.8h-1.5v-6.7l1.5-.1zm7.5-1.6v1.6h1.2v1.1h-1.2v3.7c0 .3.1.4.2.6.1.1.3.2.5.2s.3 0 .5-.1v1.2c-.3.1-.7.1-1 .1-1.2 0-1.7-.6-1.7-1.9v-3.8H234v-1.1h1.1v-1.6h1.5zm5.3 8.4c-1 0-1.7-.3-2.3-.9s-.9-1.4-.9-2.4v-.2c0-.7.1-1.3.4-1.8.3-.5.6-.9 1.1-1.2.5-.3 1-.4 1.6-.4.9 0 1.6.3 2.1.9s.7 1.4.7 2.5v.6h-4.4c0 .6.2 1 .6 1.3.3.3.7.5 1.2.5.7 0 1.3-.3 1.7-.8l.8.8c-.3.4-.6.7-1.1.9-.4.1-.9.2-1.5.2zm-.2-5.7c-.4 0-.7.1-1 .4s-.4.7-.5 1.2h2.9v-.1c0-.5-.2-.9-.4-1.1-.2-.3-.6-.4-1-.4zm7.6.3h-.6c-.7 0-1.2.3-1.4.8v4.6h-1.5v-6.7h1.4v.7c.4-.6.9-.9 1.5-.9.2 0 .4 0 .5.1l.1 1.4zm4.7 5.3c-.1-.1-.1-.3-.2-.6-.5.5-1.1.7-1.8.7s-1.2-.2-1.6-.6-.6-.9-.6-1.4c0-.7.3-1.3.8-1.6.5-.4 1.3-.6 2.3-.6h.9v-.4c0-.3-.1-.6-.3-.8-.2-.2-.5-.3-.9-.3-.3 0-.6.1-.8.3-.2.2-.3.4-.3.7H250c0-.4.1-.7.4-1 .2-.3.6-.6 1-.8.4-.2.9-.3 1.4-.3.8 0 1.4.2 1.9.6s.7.9.7 1.7v3c0 .6.1 1.1.3 1.4v.1H254v-.1zm-1.6-1.1c.3 0 .6-.1.8-.2.3-.1.5-.3.6-.6v-1.3h-.8c-.6 0-1 .1-1.3.3-.3.2-.4.5-.4.8s.1.5.3.7.5.3.8.3zm7.3 0c.4 0 .7-.1.9-.3.2-.2.4-.5.4-.8h1.4c0 .4-.1.8-.4 1.2-.2.4-.6.6-1 .9-.4.2-.9.3-1.4.3-.9 0-1.7-.3-2.2-.9s-.8-1.4-.8-2.5v-.2c0-1 .3-1.8.8-2.4s1.3-.9 2.2-.9c.8 0 1.4.2 1.9.7s.8 1.1.8 1.8H261c0-.4-.1-.7-.4-.9-.2-.2-.6-.4-.9-.4-.5 0-.9.2-1.1.5-.3.4-.4.9-.4 1.6v.2c0 .7.1 1.3.4 1.6.2.4.6.5 1.1.5zm5.7-7.2v1.6h1.2v1.1h-1.2v3.7c0 .3.1.4.2.6.1.1.3.2.5.2s.3 0 .5-.1v1.2c-.3.1-.7.1-1 .1-1.2 0-1.7-.6-1.7-1.9v-3.8h-1.1v-1.1h1.1v-1.6h1.5zm2.4-.1c0-.2.1-.4.2-.6s.4-.2.6-.2.5.1.6.2c.1.2.2.3.2.6 0 .2-.1.4-.2.6s-.4.2-.6.2-.5-.1-.6-.2c-.2-.2-.2-.4-.2-.6zm1.6 8.4h-1.5v-6.7h1.5v6.7zm1.3-3.4c0-.7.1-1.2.4-1.8.3-.5.6-.9 1.1-1.2.5-.3 1-.4 1.6-.4.9 0 1.6.3 2.2.9s.9 1.4.9 2.3v.4c0 .7-.1 1.3-.4 1.8s-.6.9-1.1 1.2-1 .4-1.6.4c-.9 0-1.7-.3-2.3-.9-.5-.7-.8-1.6-.8-2.7zm1.5.1c0 .7.1 1.2.4 1.6s.7.6 1.2.6.9-.2 1.2-.6c.3-.4.4-1 .4-1.7s-.1-1.2-.4-1.6-.7-.6-1.2-.6-.9.2-1.2.6c-.2.4-.4 1-.4 1.7zm7.4-3.4v.8c.5-.6 1.1-.9 2-.9 1.4 0 2.1.8 2.1 2.4v4.4h-1.5v-4.3c0-.4-.1-.7-.3-.9-.2-.2-.5-.3-.9-.3-.6 0-1.1.3-1.4.8v4.8h-1.5v-6.7l1.5-.1z"></path>
                    <path fill="#0D263A" d="M248.2 276.3h-1.6v-9h1.6v9zm4.6-1c.4 0 .7-.1.9-.3.2-.2.4-.5.4-.8h1.4c0 .4-.1.8-.4 1.2s-.6.6-1 .9c-.4.2-.9.3-1.4.3-.9 0-1.7-.3-2.2-.9s-.8-1.4-.8-2.5v-.2c0-1 .3-1.8.8-2.4s1.3-.9 2.2-.9c.8 0 1.4.2 1.9.7s.8 1.1.8 1.8H254c0-.4-.1-.7-.4-.9-.2-.2-.6-.4-.9-.4-.5 0-.9.2-1.1.5-.3.4-.4.9-.4 1.6v.2c0 .7.1 1.3.4 1.6s.7.5 1.2.5zm3.6-2.4c0-.7.1-1.2.4-1.8s.6-.9 1.1-1.2c.5-.3 1-.4 1.6-.4.9 0 1.6.3 2.2.9s.9 1.4.9 2.3v.4c0 .7-.1 1.3-.4 1.8s-.6.9-1.1 1.2-1 .4-1.6.4c-.9 0-1.7-.3-2.3-.9-.6-.7-.8-1.6-.8-2.7zm1.5.2c0 .7.1 1.2.4 1.6s.7.6 1.2.6.9-.2 1.2-.6c.3-.4.4-1 .4-1.7s-.1-1.2-.4-1.6-.7-.6-1.2-.6-.9.2-1.2.6c-.3.3-.4.9-.4 1.7zm7.4-3.5v.8c.5-.6 1.1-.9 2-.9 1.4 0 2.1.8 2.1 2.4v4.4h-1.5V272c0-.4-.1-.7-.3-.9-.2-.2-.5-.3-.9-.3-.6 0-1.1.3-1.4.8v4.8h-1.5v-6.7l1.5-.1z"></path>
                    <path fill="#FFF" d="M418.9 342.4c-.5-1.1-1.3-2.1-2.3-2.8-1-.7-2.2-1.1-3.5-1.1-.9 0-1.7.2-2.5.5-1.1.5-2.1 1.3-2.8 2.3-.7 1-1.1 2.2-1.1 3.5 0 .9.2 1.7.5 2.5.5 1.1 1.3 2.1 2.3 2.8 1 .7 2.2 1.1 3.5 1.1.9 0 1.7-.2 2.5-.5 1.1-.5 2.1-1.3 2.8-2.3.7-1 1.1-2.2 1.1-3.5 0-.9-.2-1.8-.5-2.5zm-1 4.5c-.4.9-1.1 1.7-1.9 2.3-.8.6-1.8.9-2.9.9-.7 0-1.4-.1-2-.4-.9-.4-1.7-1.1-2.3-1.9-.6-.8-.9-1.8-.9-2.9 0-.7.1-1.4.4-2 .4-.9 1.1-1.7 1.9-2.3.8-.6 1.8-.9 2.9-.9.7 0 1.4.1 2 .4.9.4 1.7 1.1 2.3 1.9.6.8.9 1.8.9 2.9 0 .7-.1 1.3-.4 2zm-1.9-2.6h-5.8c-.3 0-.6.3-.6.6s.3.6.6.6h5.8c.3 0 .6-.3.6-.6-.1-.4-.3-.6-.6-.6z"></path>
                    <path fill="#FFF" d="M418.9 377.8c-.5-1.1-1.3-2.1-2.3-2.8-1-.7-2.2-1.1-3.5-1.1-.9 0-1.7.2-2.5.5-1.1.5-2.1 1.3-2.8 2.3-.7 1-1.1 2.2-1.1 3.5 0 .9.2 1.7.5 2.5.5 1.1 1.3 2.1 2.3 2.8 1 .7 2.2 1.1 3.5 1.1.9 0 1.7-.2 2.5-.5 1.1-.5 2.1-1.3 2.8-2.3.7-1 1.1-2.2 1.1-3.5 0-.9-.2-1.8-.5-2.5zm-1 4.5c-.4.9-1.1 1.7-1.9 2.3-.8.6-1.8.9-2.9.9-.7 0-1.4-.1-2-.4-.9-.4-1.7-1.1-2.3-1.9-.6-.8-.9-1.8-.9-2.9 0-.7.1-1.4.4-2 .4-.9 1.1-1.7 1.9-2.3.8-.6 1.8-.9 2.9-.9.7 0 1.4.1 2 .4.9.4 1.7 1.1 2.3 1.9.6.8.9 1.8.9 2.9 0 .7-.1 1.4-.4 2zm-1.9-2.6h-5.8c-.3 0-.6.3-.6.6s.3.6.6.6h5.8c.3 0 .6-.3.6-.6-.1-.4-.3-.6-.6-.6z"></path>
                    <path fill="#0D263A" d="M237.5 269.4c-.5-1.2-1.4-2.3-2.5-3s-2.4-1.2-3.8-1.2c-.9 0-1.8.2-2.6.5-1.2.5-2.3 1.4-3 2.5s-1.2 2.4-1.2 3.8c0 .9.2 1.8.5 2.6.5 1.2 1.4 2.3 2.5 3s2.4 1.2 3.8 1.2c.9 0 1.8-.2 2.6-.5 1.2-.5 2.3-1.4 3-2.5s1.2-2.4 1.2-3.8c.1-.9-.1-1.8-.5-2.6zm-1.1 4.8c-.4 1-1.1 1.9-2 2.5s-2 1-3.1 1c-.8 0-1.5-.2-2.2-.4-1-.4-1.9-1.1-2.5-2s-1-2-1-3.1c0-.8.2-1.5.4-2.2.4-1 1.1-1.9 2-2.5s2-1 3.1-1c.8 0 1.5.2 2.2.4 1 .4 1.9 1.1 2.5 2s1 2 1 3.1c.1.8-.1 1.5-.4 2.2zm-2-2.8h-2.5v-2.5c0-.3-.3-.6-.6-.6s-.6.3-.6.6v2.5h-2.5c-.3 0-.6.3-.6.6s.3.6.6.6h2.5v2.5c0 .3.3.6.6.6s.6-.3.6-.6v-2.5h2.5c.3 0 .6-.3.6-.6s-.3-.6-.6-.6z"></path>
                    <path fill="#0D263A" d="M294.7 198.5c0-.4-.1-.7-.4-.9s-.8-.4-1.5-.7c-.7-.2-1.3-.5-1.7-.7-.8-.5-1.2-1.2-1.2-2 0-.7.3-1.3.9-1.8s1.4-.7 2.3-.7c.6 0 1.2.1 1.7.3s.9.6 1.2 1 .4.9.4 1.4h-1.6c0-.5-.1-.8-.4-1.1s-.7-.4-1.3-.4c-.5 0-.9.1-1.2.3-.3.2-.4.5-.4.9 0 .3.2.6.5.8s.8.4 1.5.6c.7.2 1.3.4 1.7.7.4.3.7.6.9.9.2.3.3.7.3 1.2 0 .8-.3 1.3-.9 1.8s-1.4.7-2.3.7c-.7 0-1.3-.1-1.8-.4-.5-.2-1-.6-1.3-1s-.5-.9-.5-1.5h1.6c0 .5.2.9.5 1.2s.8.4 1.5.4c.5 0 1-.1 1.2-.3.2-.1.3-.4.3-.7zm5.8 2.4c-1 0-1.7-.3-2.3-.9-.6-.6-.9-1.4-.9-2.4v-.2c0-.7.1-1.3.4-1.8s.6-.9 1.1-1.2 1-.4 1.6-.4c.9 0 1.6.3 2.1.9.5.6.7 1.4.7 2.5v.6h-4.4c0 .6.2 1 .6 1.3s.7.5 1.2.5c.7 0 1.3-.3 1.7-.8l.8.8c-.3.4-.6.7-1.1.9-.5.1-1 .2-1.5.2zm-.2-5.7c-.4 0-.7.1-1 .4-.3.3-.4.7-.5 1.2h2.9v-.1c0-.5-.2-.9-.4-1.1-.2-.3-.6-.4-1-.4zm5.6 5.6h-1.5v-9.5h1.5v9.5zm4.6.1c-1 0-1.7-.3-2.3-.9s-.9-1.4-.9-2.4v-.2c0-.7.1-1.3.4-1.8s.6-.9 1.1-1.2 1-.4 1.6-.4c.9 0 1.6.3 2.1.9.5.6.7 1.4.7 2.5v.6h-4.4c0 .6.2 1 .6 1.3s.7.5 1.2.5c.7 0 1.3-.3 1.7-.8l.8.8c-.3.4-.6.7-1.1.9-.4.1-.9.2-1.5.2zm-.1-5.7c-.4 0-.7.1-1 .4s-.4.7-.5 1.2h2.9v-.1c0-.5-.2-.9-.4-1.1-.3-.3-.6-.4-1-.4zm6.7 4.5c.4 0 .7-.1.9-.3.2-.2.4-.5.4-.8h1.4c0 .4-.1.8-.4 1.2-.2.4-.6.6-1 .9-.4.2-.9.3-1.4.3-.9 0-1.7-.3-2.2-.9-.5-.6-.8-1.4-.8-2.5v-.2c0-1 .3-1.8.8-2.4.5-.6 1.3-.9 2.2-.9.8 0 1.4.2 1.9.7s.8 1.1.8 1.8h-1.4c0-.4-.1-.7-.4-.9-.2-.2-.6-.4-.9-.4-.5 0-.9.2-1.1.5s-.4.9-.4 1.6v.2c0 .7.1 1.3.4 1.6.4.3.7.5 1.2.5zm5.8-7.2v1.6h1.2v1.1h-1.2v3.7c0 .3.1.4.2.6.1.1.3.2.5.2s.3 0 .5-.1v1.2c-.3.1-.7.1-1 .1-1.2 0-1.7-.6-1.7-1.9v-3.8h-1.1v-1.1h1.1v-1.6h1.5zm9.5 8.3c-.1-.1-.1-.3-.2-.6-.5.5-1.1.7-1.8.7s-1.2-.2-1.6-.6c-.4-.4-.6-.9-.6-1.4 0-.7.3-1.3.8-1.6.5-.4 1.3-.6 2.3-.6h.9v-.4c0-.3-.1-.6-.3-.8s-.5-.3-.9-.3c-.3 0-.6.1-.8.3-.2.2-.3.4-.3.7h-1.5c0-.4.1-.7.4-1 .2-.3.6-.6 1-.8s.9-.3 1.4-.3c.8 0 1.4.2 1.9.6.5.4.7.9.7 1.7v3c0 .6.1 1.1.3 1.4v.1l-1.7-.1zm-1.6-1.1c.3 0 .6-.1.8-.2.3-.1.5-.3.6-.6v-1.3h-.8c-.6 0-1 .1-1.3.3s-.4.5-.4.8.1.5.3.7c.2.2.4.3.8.3zm9.5-7.2v1.6h1.2v1.1h-1.2v3.7c0 .3.1.4.2.6.1.1.3.2.5.2s.3 0 .5-.1v1.2c-.3.1-.7.1-1 .1-1.2 0-1.7-.6-1.7-1.9v-3.8h-1.1v-1.1h1.1v-1.6h1.5zm6.4 8.3c-.1-.1-.1-.3-.2-.6-.5.5-1.1.7-1.8.7s-1.2-.2-1.6-.6c-.4-.4-.6-.9-.6-1.4 0-.7.3-1.3.8-1.6.5-.4 1.3-.6 2.3-.6h.9v-.4c0-.3-.1-.6-.3-.8s-.5-.3-.9-.3c-.3 0-.6.1-.8.3-.2.2-.3.4-.3.7h-1.5c0-.4.1-.7.4-1 .2-.3.6-.6 1-.8s.9-.3 1.4-.3c.8 0 1.4.2 1.9.6.5.4.7.9.7 1.7v3c0 .6.1 1.1.3 1.4v.1l-1.7-.1zm-1.7-1.1c.3 0 .6-.1.8-.2.3-.1.5-.3.6-.6v-1.3h-.8c-.6 0-1 .1-1.3.3s-.4.5-.4.8.1.5.3.7c.2.2.5.3.8.3zm4.2-2.3c0-1 .2-1.9.7-2.5s1.1-.9 1.9-.9 1.4.3 1.8.8l.1-.7h1.4v6.5c0 .9-.3 1.6-.8 2.1s-1.3.8-2.2.8c-.5 0-1-.1-1.4-.3-.5-.2-.8-.5-1.1-.8l.7-.9c.5.5 1 .8 1.7.8.5 0 .9-.1 1.2-.4.3-.3.4-.7.4-1.2v-.5c-.4.5-1 .7-1.7.7-.8 0-1.4-.3-1.9-.9-.5-.6-.8-1.5-.8-2.6zm1.5.1c0 .7.1 1.2.4 1.6.3.4.7.6 1.1.6.6 0 1.1-.3 1.4-.8V196c-.3-.5-.7-.8-1.3-.8-.5 0-.9.2-1.2.6-.2.4-.4 1-.4 1.7z"></path>
                </g>
            </g>
        </svg>